<svg id="Layer_1" data-name="Layer 1" xmlns="http://www.w3.org/2000/svg" viewBox="0 0 511.99 512.03">
  <defs>
    <style>
      .cls-1 {
        fill: #c6e1f7;
      }
    </style>
  </defs>
  <path class="cls-1" d="M374.8,9.4a31.93,31.93,0,0,0-45.2-.1,33.39,33.39,0,0,0-7.2,11.3c-26.6,55.5-55.8,86.7-92.8,105.2-41.4,20.5-89,34.7-165.7,34.7A32,32,0,0,0,41.3,215L145,318.7,0,512,193.3,367,297,470.6a30.52,30.52,0,0,0,10.4,6.9,32.46,32.46,0,0,0,12.2,2.5,32.25,32.25,0,0,0,29.5-19.8,32.46,32.46,0,0,0,2.5-12.2c0-76.7,14.2-124.3,34.6-165.1,18.4-36.9,49.7-66.2,105.2-92.8a32.46,32.46,0,0,0,11.3-7.2,32,32,0,0,0-.1-45.2Z" transform="translate(0 0.03)"/>
</svg>
